<svg width="126" height="36" viewBox="0 0 126 36" fill="none" xmlns="http://www.w3.org/2000/svg">
<path d="M13.3711 15.957H12.8125C10.849 15.957 9.63021 16.5833 9.15625 17.8359C8.85156 18.6146 8.69922 20.5612 8.69922 23.6758V35H0.828125V6.35938H8.69922L8.34375 10.1172C8.95312 8.76302 9.57943 7.78125 10.2227 7.17188C11.0352 6.42708 12.0846 5.98698 13.3711 5.85156V15.957ZM32.9727 25.0977C32.9727 25.5039 32.9727 25.8086 32.9727 26.0117C32.9727 27.3659 32.888 28.4492 32.7188 29.2617C32.5495 30.0404 32.1263 30.9375 31.4492 31.9531C30.6706 33.1719 29.7734 34.0013 28.7578 34.4414C27.776 34.8477 26.4049 35.0508 24.6445 35.0508C22.3424 35.0508 20.4635 34.6615 19.0078 33.8828C17.5521 33.0703 16.5365 31.7839 15.9609 30.0234C15.6901 29.2448 15.5378 28.2799 15.5039 27.1289C15.4701 25.9779 15.4531 25.1315 15.4531 24.5898V16.2617C15.4531 15.0768 15.487 14.0612 15.5547 13.2148C15.6562 12.3685 15.8594 11.5391 16.1641 10.7266C16.7396 9.20312 17.6875 8.10286 19.0078 7.42578C20.362 6.71484 22.0547 6.35938 24.0859 6.35938C25.8464 6.35938 27.319 6.61328 28.5039 7.12109C29.6888 7.59505 30.6536 8.39062 31.3984 9.50781C32.0078 10.4219 32.4141 11.5391 32.6172 12.8594C32.8542 14.1797 32.9727 15.7031 32.9727 17.4297V21.2383H23.2734V27.3828C23.2734 28.263 23.3073 28.9909 23.375 29.5664C23.4427 30.1419 23.8151 30.4297 24.4922 30.4297C25.0677 30.4297 25.457 30.1758 25.6602 29.668C25.8971 29.1602 26.0156 28.4323 26.0156 27.4844V24.0312H32.9727V25.0977ZM25.5586 16.5156V14.4844C25.5586 14.0781 25.5586 13.7904 25.5586 13.6211C25.5586 12.6055 25.4909 11.9115 25.3555 11.5391C25.2201 11.1667 24.9323 10.9805 24.4922 10.9805C23.9844 10.9805 23.6458 11.1328 23.4766 11.4375C23.3411 11.7422 23.2734 12.2839 23.2734 13.0625V16.5156H25.5586ZM42.3164 19.3594H35.7656V12.1992H42.3164V19.3594ZM42.3164 35H35.7656V27.8906H42.3164V35ZM63.7969 26.9766C63.7969 28.737 63.7799 29.8034 63.7461 30.1758C63.5768 31.8008 63.0352 33.0703 62.1211 33.9844C61.681 34.3906 61.1393 34.6784 60.4961 34.8477C59.8867 34.9831 59.1927 35.0508 58.4141 35.0508C57.1953 35.0508 56.2305 34.8984 55.5195 34.5938C54.8086 34.2891 54.1315 33.6966 53.4883 32.8164L53.0312 35H45.668V0.0625H53.4883V8.33984C54.1654 7.52734 54.8255 7.01953 55.4688 6.81641C56.1458 6.61328 57.1615 6.51172 58.5156 6.51172C59.9714 6.51172 61.1055 6.73177 61.918 7.17188C62.7305 7.61198 63.2721 8.40755 63.543 9.55859C63.6445 9.89714 63.7122 10.3711 63.7461 10.9805C63.7799 11.5898 63.7969 12.1654 63.7969 12.707V26.9766ZM55.9766 26.5703V14.5352C55.9766 13.1471 55.9089 12.1992 55.7734 11.6914C55.638 11.1836 55.2656 10.9297 54.6562 10.9297C54.013 10.9297 53.6576 11.2682 53.5898 11.9453C53.5221 12.5885 53.4883 13.4518 53.4883 14.5352V26.8242C53.4883 28.1784 53.556 29.1263 53.6914 29.668C53.8268 30.1758 54.1654 30.4297 54.707 30.4297C55.1471 30.4297 55.4688 30.2266 55.6719 29.8203C55.875 29.3802 55.9766 28.2969 55.9766 26.5703ZM84.5156 23.4219C84.5156 23.862 84.5156 24.1836 84.5156 24.3867C84.5156 25.1654 84.5156 25.944 84.5156 26.7227C84.4479 28.0091 84.2448 29.1263 83.9062 30.0742C83.3307 31.8008 82.332 33.0703 80.9102 33.8828C79.4883 34.6615 77.6602 35.0508 75.4258 35.0508C75.0195 35.0508 74.7318 35.0508 74.5625 35.0508C73.276 35.0508 72.2604 34.9831 71.5156 34.8477C70.7708 34.7122 70.043 34.3737 69.332 33.832C68.1471 32.9518 67.3685 31.8008 66.9961 30.3789C66.6576 28.9232 66.4883 26.9258 66.4883 24.3867V17.0742C66.4883 16.4648 66.4883 15.8724 66.4883 15.2969C66.4883 14.7214 66.5391 14.112 66.6406 13.4688C66.9792 11.0312 67.8594 9.22005 69.2812 8.03516C70.737 6.81641 72.7174 6.20703 75.2227 6.20703C79.793 6.20703 82.7044 7.86589 83.957 11.1836C84.194 11.7591 84.3464 12.5208 84.4141 13.4688C84.4818 14.4167 84.5156 15.3984 84.5156 16.4141V23.4219ZM76.6445 28.9062V14.2305C76.6445 13.9258 76.6445 13.7057 76.6445 13.5703C76.6445 12.4193 76.5599 11.6914 76.3906 11.3867C76.2214 11.082 75.9167 10.9297 75.4766 10.9297C74.901 10.9297 74.5625 11.2344 74.4609 11.8438C74.3594 12.4193 74.3086 12.9948 74.3086 13.5703C74.3086 13.875 74.3086 14.0951 74.3086 14.2305V27.9922C74.3086 28.7708 74.3763 29.3802 74.5117 29.8203C74.681 30.2266 75.0026 30.4297 75.4766 30.4297C76.2552 30.4297 76.6445 29.9219 76.6445 28.9062ZM105.082 35H97.2109V15.1445C97.2109 14.6706 97.2109 14.3151 97.2109 14.0781C97.2109 12.7578 97.1602 11.9115 97.0586 11.5391C96.957 11.1328 96.6354 10.9297 96.0938 10.9297C95.4505 10.9297 95.0781 11.3021 94.9766 12.0469C94.875 12.7578 94.8242 13.5872 94.8242 14.5352C94.8242 15.0091 94.8242 15.3815 94.8242 15.6523V35H87.0039V6.35938H95.0273L94.8242 9C95.9753 7.07031 97.6341 6.10547 99.8008 6.10547C100.613 6.10547 101.307 6.1901 101.883 6.35938C102.492 6.49479 103.034 6.79948 103.508 7.27344C104.219 8.01823 104.659 8.93229 104.828 10.0156C104.997 11.0651 105.082 12.707 105.082 14.9414V35ZM125.902 35H118.082V32.918C117.303 33.7305 116.525 34.2891 115.746 34.5938C115.001 34.8984 114.104 35.0508 113.055 35.0508C112.073 35.0508 111.193 34.8984 110.414 34.5938C109.635 34.2891 109.026 33.7982 108.586 33.1211C108.281 32.5794 108.061 31.9193 107.926 31.1406C107.824 30.3281 107.773 29.3802 107.773 28.2969C107.773 27.8906 107.773 27.5859 107.773 27.3828V13.9766C107.773 12.0807 107.858 10.6589 108.027 9.71094C108.197 8.72917 108.671 7.88281 109.449 7.17188C109.686 6.96875 109.974 6.81641 110.312 6.71484C110.685 6.57943 111.193 6.51172 111.836 6.51172C112.411 6.51172 112.835 6.51172 113.105 6.51172C114.324 6.51172 115.289 6.61328 116 6.81641C116.711 6.98568 117.405 7.44271 118.082 8.1875V0.0625H125.902V35ZM118.082 26.8242V13.5703C118.082 12.5547 118.014 11.8607 117.879 11.4883C117.743 11.1159 117.388 10.9297 116.812 10.9297C116 10.9297 115.594 11.5391 115.594 12.7578V27.5859C115.594 28.6693 115.645 29.4141 115.746 29.8203C115.848 30.2266 116.169 30.4297 116.711 30.4297C117.422 30.4297 117.828 30.0404 117.93 29.2617C118.031 28.4831 118.082 27.6706 118.082 26.8242Z" fill="black"/>
</svg>
